<?xml version="1.0" encoding="UTF-8"?>
<svg version="1.1" xmlns="http://www.w3.org/2000/svg" width="74" height="74">
<path d="M0 0 C16.17 0 32.34 0 49 0 C49 3.96 49 7.92 49 12 C32.83 12 16.66 12 0 12 C0 8.04 0 4.08 0 0 Z " fill="#EA5504" transform="translate(12,48)"/>
<path d="M0 0 C16.17 0 32.34 0 49 0 C49 3.96 49 7.92 49 12 C32.83 12 16.66 12 0 12 C0 8.04 0 4.08 0 0 Z " fill="#FABE00" transform="translate(12,31)"/>
<path d="M0 0 C16.17 0 32.34 0 49 0 C49 3.96 49 7.92 49 12 C32.83 12 16.66 12 0 12 C0 8.04 0 4.08 0 0 Z " fill="#74C6BE" transform="translate(12,14)"/>
</svg>
